G04 #@! TF.GenerationSoftware,KiCad,Pcbnew,(5.1.2)-2*
G04 #@! TF.CreationDate,2019-08-09T21:51:20-03:00*
G04 #@! TF.ProjectId,ma_a,6d61e761-2e6b-4696-9361-645f70636258,rev?*
G04 #@! TF.SameCoordinates,Original*
G04 #@! TF.FileFunction,Legend,Top*
G04 #@! TF.FilePolarity,Positive*
%FSLAX46Y46*%
G04 Gerber Fmt 4.6, Leading zero omitted, Abs format (unit mm)*
G04 Created by KiCad (PCBNEW (5.1.2)-2) date 2019-08-09 21:51:20*
%MOMM*%
%LPD*%
G04 APERTURE LIST*
%ADD10C,0.120000*%
%ADD11C,0.150000*%
G04 APERTURE END LIST*
D10*
X135710000Y-81590000D02*
X134760000Y-81590000D01*
X129970000Y-81590000D02*
X130920000Y-81590000D01*
X134760000Y-80670000D02*
X130920000Y-80670000D01*
X134760000Y-82510000D02*
X134760000Y-80670000D01*
X130920000Y-82510000D02*
X134760000Y-82510000D01*
X130920000Y-80670000D02*
X130920000Y-82510000D01*
X135710000Y-78440000D02*
X134760000Y-78440000D01*
X129970000Y-78440000D02*
X130920000Y-78440000D01*
X134760000Y-77520000D02*
X130920000Y-77520000D01*
X134760000Y-79360000D02*
X134760000Y-77520000D01*
X130920000Y-79360000D02*
X134760000Y-79360000D01*
X130920000Y-77520000D02*
X130920000Y-79360000D01*
X135710000Y-75290000D02*
X134760000Y-75290000D01*
X129970000Y-75290000D02*
X130920000Y-75290000D01*
X134760000Y-74370000D02*
X130920000Y-74370000D01*
X134760000Y-76210000D02*
X134760000Y-74370000D01*
X130920000Y-76210000D02*
X134760000Y-76210000D01*
X130920000Y-74370000D02*
X130920000Y-76210000D01*
X143218478Y-78808478D02*
G75*
G03X141380000Y-74370000I-1838478J1838478D01*
G01*
X139541522Y-78808478D02*
G75*
G02X141380000Y-74370000I1838478J1838478D01*
G01*
X139580000Y-78820000D02*
X143180000Y-78820000D01*
X142570000Y-82335000D02*
X142570000Y-82400000D01*
X142570000Y-80160000D02*
X142570000Y-80225000D01*
X139330000Y-82335000D02*
X139330000Y-82400000D01*
X139330000Y-80160000D02*
X139330000Y-80225000D01*
X139330000Y-82400000D02*
X142570000Y-82400000D01*
X139330000Y-80160000D02*
X142570000Y-80160000D01*
D11*
X132673333Y-80122380D02*
X132340000Y-79646190D01*
X132101904Y-80122380D02*
X132101904Y-79122380D01*
X132482857Y-79122380D01*
X132578095Y-79170000D01*
X132625714Y-79217619D01*
X132673333Y-79312857D01*
X132673333Y-79455714D01*
X132625714Y-79550952D01*
X132578095Y-79598571D01*
X132482857Y-79646190D01*
X132101904Y-79646190D01*
X133006666Y-79122380D02*
X133625714Y-79122380D01*
X133292380Y-79503333D01*
X133435238Y-79503333D01*
X133530476Y-79550952D01*
X133578095Y-79598571D01*
X133625714Y-79693809D01*
X133625714Y-79931904D01*
X133578095Y-80027142D01*
X133530476Y-80074761D01*
X133435238Y-80122380D01*
X133149523Y-80122380D01*
X133054285Y-80074761D01*
X133006666Y-80027142D01*
X132673333Y-76972380D02*
X132340000Y-76496190D01*
X132101904Y-76972380D02*
X132101904Y-75972380D01*
X132482857Y-75972380D01*
X132578095Y-76020000D01*
X132625714Y-76067619D01*
X132673333Y-76162857D01*
X132673333Y-76305714D01*
X132625714Y-76400952D01*
X132578095Y-76448571D01*
X132482857Y-76496190D01*
X132101904Y-76496190D01*
X133054285Y-76067619D02*
X133101904Y-76020000D01*
X133197142Y-75972380D01*
X133435238Y-75972380D01*
X133530476Y-76020000D01*
X133578095Y-76067619D01*
X133625714Y-76162857D01*
X133625714Y-76258095D01*
X133578095Y-76400952D01*
X133006666Y-76972380D01*
X133625714Y-76972380D01*
X132673333Y-73822380D02*
X132340000Y-73346190D01*
X132101904Y-73822380D02*
X132101904Y-72822380D01*
X132482857Y-72822380D01*
X132578095Y-72870000D01*
X132625714Y-72917619D01*
X132673333Y-73012857D01*
X132673333Y-73155714D01*
X132625714Y-73250952D01*
X132578095Y-73298571D01*
X132482857Y-73346190D01*
X132101904Y-73346190D01*
X133625714Y-73822380D02*
X133054285Y-73822380D01*
X133340000Y-73822380D02*
X133340000Y-72822380D01*
X133244761Y-72965238D01*
X133149523Y-73060476D01*
X133054285Y-73108095D01*
X141284761Y-73957619D02*
X141189523Y-73910000D01*
X141094285Y-73814761D01*
X140951428Y-73671904D01*
X140856190Y-73624285D01*
X140760952Y-73624285D01*
X140808571Y-73862380D02*
X140713333Y-73814761D01*
X140618095Y-73719523D01*
X140570476Y-73529047D01*
X140570476Y-73195714D01*
X140618095Y-73005238D01*
X140713333Y-72910000D01*
X140808571Y-72862380D01*
X140999047Y-72862380D01*
X141094285Y-72910000D01*
X141189523Y-73005238D01*
X141237142Y-73195714D01*
X141237142Y-73529047D01*
X141189523Y-73719523D01*
X141094285Y-73814761D01*
X140999047Y-73862380D01*
X140808571Y-73862380D01*
X142189523Y-73862380D02*
X141618095Y-73862380D01*
X141903809Y-73862380D02*
X141903809Y-72862380D01*
X141808571Y-73005238D01*
X141713333Y-73100476D01*
X141618095Y-73148095D01*
X140783333Y-79387142D02*
X140735714Y-79434761D01*
X140592857Y-79482380D01*
X140497619Y-79482380D01*
X140354761Y-79434761D01*
X140259523Y-79339523D01*
X140211904Y-79244285D01*
X140164285Y-79053809D01*
X140164285Y-78910952D01*
X140211904Y-78720476D01*
X140259523Y-78625238D01*
X140354761Y-78530000D01*
X140497619Y-78482380D01*
X140592857Y-78482380D01*
X140735714Y-78530000D01*
X140783333Y-78577619D01*
X141735714Y-79482380D02*
X141164285Y-79482380D01*
X141450000Y-79482380D02*
X141450000Y-78482380D01*
X141354761Y-78625238D01*
X141259523Y-78720476D01*
X141164285Y-78768095D01*
M02*
