G04 #@! TF.GenerationSoftware,KiCad,Pcbnew,(5.1.2)-2*
G04 #@! TF.CreationDate,2019-08-09T21:51:20-03:00*
G04 #@! TF.ProjectId,ma_a,6d61e761-2e6b-4696-9361-645f70636258,rev?*
G04 #@! TF.SameCoordinates,Original*
G04 #@! TF.FileFunction,Soldermask,Top*
G04 #@! TF.FilePolarity,Negative*
%FSLAX46Y46*%
G04 Gerber Fmt 4.6, Leading zero omitted, Abs format (unit mm)*
G04 Created by KiCad (PCBNEW (5.1.2)-2) date 2019-08-09 21:51:20*
%MOMM*%
%LPD*%
G04 APERTURE LIST*
%ADD10C,0.100000*%
G04 APERTURE END LIST*
D10*
G36*
X129249059Y-80867860D02*
G01*
X129309294Y-80892810D01*
X129385732Y-80924472D01*
X129508735Y-81006660D01*
X129613340Y-81111265D01*
X129695528Y-81234268D01*
X129752140Y-81370941D01*
X129781000Y-81516033D01*
X129781000Y-81663967D01*
X129752140Y-81809059D01*
X129695528Y-81945732D01*
X129613340Y-82068735D01*
X129508735Y-82173340D01*
X129385732Y-82255528D01*
X129385731Y-82255529D01*
X129385730Y-82255529D01*
X129249059Y-82312140D01*
X129103968Y-82341000D01*
X128956032Y-82341000D01*
X128810941Y-82312140D01*
X128674270Y-82255529D01*
X128674269Y-82255529D01*
X128674268Y-82255528D01*
X128551265Y-82173340D01*
X128446660Y-82068735D01*
X128364472Y-81945732D01*
X128307860Y-81809059D01*
X128279000Y-81663967D01*
X128279000Y-81516033D01*
X128307860Y-81370941D01*
X128364472Y-81234268D01*
X128446660Y-81111265D01*
X128551265Y-81006660D01*
X128674268Y-80924472D01*
X128750707Y-80892810D01*
X128810941Y-80867860D01*
X128956032Y-80839000D01*
X129103968Y-80839000D01*
X129249059Y-80867860D01*
X129249059Y-80867860D01*
G37*
G36*
X136723665Y-80842622D02*
G01*
X136797222Y-80849867D01*
X136938786Y-80892810D01*
X137069252Y-80962546D01*
X137099040Y-80986992D01*
X137183607Y-81056393D01*
X137253008Y-81140960D01*
X137277454Y-81170748D01*
X137347190Y-81301214D01*
X137390133Y-81442778D01*
X137404633Y-81590000D01*
X137390133Y-81737222D01*
X137347190Y-81878786D01*
X137277454Y-82009252D01*
X137257023Y-82034147D01*
X137183607Y-82123607D01*
X137123004Y-82173341D01*
X137069252Y-82217454D01*
X136938786Y-82287190D01*
X136797222Y-82330133D01*
X136723665Y-82337378D01*
X136686888Y-82341000D01*
X136613112Y-82341000D01*
X136576335Y-82337378D01*
X136502778Y-82330133D01*
X136361214Y-82287190D01*
X136230748Y-82217454D01*
X136176996Y-82173341D01*
X136116393Y-82123607D01*
X136042977Y-82034147D01*
X136022546Y-82009252D01*
X135952810Y-81878786D01*
X135909867Y-81737222D01*
X135895367Y-81590000D01*
X135909867Y-81442778D01*
X135952810Y-81301214D01*
X136022546Y-81170748D01*
X136046992Y-81140960D01*
X136116393Y-81056393D01*
X136200960Y-80986992D01*
X136230748Y-80962546D01*
X136361214Y-80892810D01*
X136502778Y-80849867D01*
X136576335Y-80842622D01*
X136613112Y-80839000D01*
X136686888Y-80839000D01*
X136723665Y-80842622D01*
X136723665Y-80842622D01*
G37*
G36*
X139948228Y-80461703D02*
G01*
X140103100Y-80525853D01*
X140242481Y-80618985D01*
X140361015Y-80737519D01*
X140454147Y-80876900D01*
X140518297Y-81031772D01*
X140551000Y-81196184D01*
X140551000Y-81363816D01*
X140518297Y-81528228D01*
X140454147Y-81683100D01*
X140361015Y-81822481D01*
X140242481Y-81941015D01*
X140103100Y-82034147D01*
X139948228Y-82098297D01*
X139783816Y-82131000D01*
X139616184Y-82131000D01*
X139451772Y-82098297D01*
X139296900Y-82034147D01*
X139157519Y-81941015D01*
X139038985Y-81822481D01*
X138945853Y-81683100D01*
X138881703Y-81528228D01*
X138849000Y-81363816D01*
X138849000Y-81196184D01*
X138881703Y-81031772D01*
X138945853Y-80876900D01*
X139038985Y-80737519D01*
X139157519Y-80618985D01*
X139296900Y-80525853D01*
X139451772Y-80461703D01*
X139616184Y-80429000D01*
X139783816Y-80429000D01*
X139948228Y-80461703D01*
X139948228Y-80461703D01*
G37*
G36*
X142448228Y-80461703D02*
G01*
X142603100Y-80525853D01*
X142742481Y-80618985D01*
X142861015Y-80737519D01*
X142954147Y-80876900D01*
X143018297Y-81031772D01*
X143051000Y-81196184D01*
X143051000Y-81363816D01*
X143018297Y-81528228D01*
X142954147Y-81683100D01*
X142861015Y-81822481D01*
X142742481Y-81941015D01*
X142603100Y-82034147D01*
X142448228Y-82098297D01*
X142283816Y-82131000D01*
X142116184Y-82131000D01*
X141951772Y-82098297D01*
X141796900Y-82034147D01*
X141657519Y-81941015D01*
X141538985Y-81822481D01*
X141445853Y-81683100D01*
X141381703Y-81528228D01*
X141349000Y-81363816D01*
X141349000Y-81196184D01*
X141381703Y-81031772D01*
X141445853Y-80876900D01*
X141538985Y-80737519D01*
X141657519Y-80618985D01*
X141796900Y-80525853D01*
X141951772Y-80461703D01*
X142116184Y-80429000D01*
X142283816Y-80429000D01*
X142448228Y-80461703D01*
X142448228Y-80461703D01*
G37*
G36*
X136723665Y-77692622D02*
G01*
X136797222Y-77699867D01*
X136938786Y-77742810D01*
X137069252Y-77812546D01*
X137099040Y-77836992D01*
X137183607Y-77906393D01*
X137253008Y-77990960D01*
X137277454Y-78020748D01*
X137347190Y-78151214D01*
X137390133Y-78292778D01*
X137404633Y-78440000D01*
X137390133Y-78587222D01*
X137347190Y-78728786D01*
X137277454Y-78859252D01*
X137253008Y-78889040D01*
X137183607Y-78973607D01*
X137123004Y-79023341D01*
X137069252Y-79067454D01*
X136938786Y-79137190D01*
X136797222Y-79180133D01*
X136723665Y-79187378D01*
X136686888Y-79191000D01*
X136613112Y-79191000D01*
X136576335Y-79187378D01*
X136502778Y-79180133D01*
X136361214Y-79137190D01*
X136230748Y-79067454D01*
X136176996Y-79023341D01*
X136116393Y-78973607D01*
X136046992Y-78889040D01*
X136022546Y-78859252D01*
X135952810Y-78728786D01*
X135909867Y-78587222D01*
X135895367Y-78440000D01*
X135909867Y-78292778D01*
X135952810Y-78151214D01*
X136022546Y-78020748D01*
X136046992Y-77990960D01*
X136116393Y-77906393D01*
X136200960Y-77836992D01*
X136230748Y-77812546D01*
X136361214Y-77742810D01*
X136502778Y-77699867D01*
X136576335Y-77692622D01*
X136613112Y-77689000D01*
X136686888Y-77689000D01*
X136723665Y-77692622D01*
X136723665Y-77692622D01*
G37*
G36*
X129249059Y-77717860D02*
G01*
X129384079Y-77773787D01*
X129385732Y-77774472D01*
X129508735Y-77856660D01*
X129613340Y-77961265D01*
X129695528Y-78084268D01*
X129752140Y-78220941D01*
X129781000Y-78366033D01*
X129781000Y-78513967D01*
X129752140Y-78659059D01*
X129695528Y-78795732D01*
X129613340Y-78918735D01*
X129508735Y-79023340D01*
X129385732Y-79105528D01*
X129385731Y-79105529D01*
X129385730Y-79105529D01*
X129249059Y-79162140D01*
X129103968Y-79191000D01*
X128956032Y-79191000D01*
X128810941Y-79162140D01*
X128674270Y-79105529D01*
X128674269Y-79105529D01*
X128674268Y-79105528D01*
X128551265Y-79023340D01*
X128446660Y-78918735D01*
X128364472Y-78795732D01*
X128307860Y-78659059D01*
X128279000Y-78513967D01*
X128279000Y-78366033D01*
X128307860Y-78220941D01*
X128364472Y-78084268D01*
X128446660Y-77961265D01*
X128551265Y-77856660D01*
X128674268Y-77774472D01*
X128675922Y-77773787D01*
X128810941Y-77717860D01*
X128956032Y-77689000D01*
X129103968Y-77689000D01*
X129249059Y-77717860D01*
X129249059Y-77717860D01*
G37*
G36*
X142762915Y-76177334D02*
G01*
X142871491Y-76210271D01*
X142871494Y-76210272D01*
X142907600Y-76229571D01*
X142971556Y-76263756D01*
X143059264Y-76335736D01*
X143131244Y-76423443D01*
X143165429Y-76487399D01*
X143184728Y-76523505D01*
X143184729Y-76523508D01*
X143217666Y-76632084D01*
X143226000Y-76716702D01*
X143226000Y-77223297D01*
X143217666Y-77307916D01*
X143185252Y-77414767D01*
X143184728Y-77416495D01*
X143174761Y-77435141D01*
X143131244Y-77516557D01*
X143059264Y-77604264D01*
X142971557Y-77676244D01*
X142907601Y-77710429D01*
X142871495Y-77729728D01*
X142871492Y-77729729D01*
X142762916Y-77762666D01*
X142650000Y-77773787D01*
X142537085Y-77762666D01*
X142428509Y-77729729D01*
X142428506Y-77729728D01*
X142392400Y-77710429D01*
X142328444Y-77676244D01*
X142240737Y-77604264D01*
X142168757Y-77516557D01*
X142125239Y-77435141D01*
X142111625Y-77414766D01*
X142094298Y-77397439D01*
X142073924Y-77383826D01*
X142051285Y-77374448D01*
X142027252Y-77369668D01*
X142002748Y-77369668D01*
X141978715Y-77374448D01*
X141956076Y-77383826D01*
X141935701Y-77397440D01*
X141918374Y-77414767D01*
X141904761Y-77435141D01*
X141861244Y-77516557D01*
X141789264Y-77604264D01*
X141701557Y-77676244D01*
X141637601Y-77710429D01*
X141601495Y-77729728D01*
X141601492Y-77729729D01*
X141492916Y-77762666D01*
X141380000Y-77773787D01*
X141267085Y-77762666D01*
X141158509Y-77729729D01*
X141158506Y-77729728D01*
X141122400Y-77710429D01*
X141058444Y-77676244D01*
X140970737Y-77604264D01*
X140907622Y-77527359D01*
X140890297Y-77510034D01*
X140869923Y-77496420D01*
X140847284Y-77487043D01*
X140823250Y-77482263D01*
X140798746Y-77482263D01*
X140774713Y-77487044D01*
X140752074Y-77496421D01*
X140731700Y-77510035D01*
X140714373Y-77527362D01*
X140700759Y-77547736D01*
X140691382Y-77570375D01*
X140686000Y-77606660D01*
X140686000Y-77771000D01*
X139534000Y-77771000D01*
X139534000Y-76169000D01*
X140686000Y-76169000D01*
X140686000Y-76333341D01*
X140688402Y-76357727D01*
X140695515Y-76381176D01*
X140707066Y-76402787D01*
X140722611Y-76421729D01*
X140741553Y-76437274D01*
X140763164Y-76448825D01*
X140786613Y-76455938D01*
X140810999Y-76458340D01*
X140835385Y-76455938D01*
X140858834Y-76448825D01*
X140880445Y-76437274D01*
X140899387Y-76421729D01*
X140907608Y-76412657D01*
X140970736Y-76335736D01*
X141058443Y-76263756D01*
X141122399Y-76229571D01*
X141158505Y-76210272D01*
X141158508Y-76210271D01*
X141267084Y-76177334D01*
X141380000Y-76166213D01*
X141492915Y-76177334D01*
X141601491Y-76210271D01*
X141601494Y-76210272D01*
X141637600Y-76229571D01*
X141701556Y-76263756D01*
X141789264Y-76335736D01*
X141861244Y-76423443D01*
X141904761Y-76504859D01*
X141918375Y-76525234D01*
X141935702Y-76542561D01*
X141956076Y-76556174D01*
X141978715Y-76565552D01*
X142002748Y-76570332D01*
X142027252Y-76570332D01*
X142051285Y-76565552D01*
X142073924Y-76556174D01*
X142094299Y-76542560D01*
X142111626Y-76525233D01*
X142125239Y-76504860D01*
X142168756Y-76423444D01*
X142240736Y-76335736D01*
X142328443Y-76263756D01*
X142392399Y-76229571D01*
X142428505Y-76210272D01*
X142428508Y-76210271D01*
X142537084Y-76177334D01*
X142650000Y-76166213D01*
X142762915Y-76177334D01*
X142762915Y-76177334D01*
G37*
G36*
X129249059Y-74567860D02*
G01*
X129309294Y-74592810D01*
X129385732Y-74624472D01*
X129508735Y-74706660D01*
X129613340Y-74811265D01*
X129695528Y-74934268D01*
X129752140Y-75070941D01*
X129781000Y-75216033D01*
X129781000Y-75363967D01*
X129752140Y-75509059D01*
X129695528Y-75645732D01*
X129613340Y-75768735D01*
X129508735Y-75873340D01*
X129385732Y-75955528D01*
X129385731Y-75955529D01*
X129385730Y-75955529D01*
X129249059Y-76012140D01*
X129103968Y-76041000D01*
X128956032Y-76041000D01*
X128810941Y-76012140D01*
X128674270Y-75955529D01*
X128674269Y-75955529D01*
X128674268Y-75955528D01*
X128551265Y-75873340D01*
X128446660Y-75768735D01*
X128364472Y-75645732D01*
X128307860Y-75509059D01*
X128279000Y-75363967D01*
X128279000Y-75216033D01*
X128307860Y-75070941D01*
X128364472Y-74934268D01*
X128446660Y-74811265D01*
X128551265Y-74706660D01*
X128674268Y-74624472D01*
X128750707Y-74592810D01*
X128810941Y-74567860D01*
X128956032Y-74539000D01*
X129103968Y-74539000D01*
X129249059Y-74567860D01*
X129249059Y-74567860D01*
G37*
G36*
X136723665Y-74542622D02*
G01*
X136797222Y-74549867D01*
X136938786Y-74592810D01*
X137069252Y-74662546D01*
X137099040Y-74686992D01*
X137183607Y-74756393D01*
X137253008Y-74840960D01*
X137277454Y-74870748D01*
X137347190Y-75001214D01*
X137390133Y-75142778D01*
X137404633Y-75290000D01*
X137390133Y-75437222D01*
X137347190Y-75578786D01*
X137277454Y-75709252D01*
X137253008Y-75739040D01*
X137183607Y-75823607D01*
X137123004Y-75873341D01*
X137069252Y-75917454D01*
X136938786Y-75987190D01*
X136797222Y-76030133D01*
X136723665Y-76037378D01*
X136686888Y-76041000D01*
X136613112Y-76041000D01*
X136576335Y-76037378D01*
X136502778Y-76030133D01*
X136361214Y-75987190D01*
X136230748Y-75917454D01*
X136176996Y-75873341D01*
X136116393Y-75823607D01*
X136046992Y-75739040D01*
X136022546Y-75709252D01*
X135952810Y-75578786D01*
X135909867Y-75437222D01*
X135895367Y-75290000D01*
X135909867Y-75142778D01*
X135952810Y-75001214D01*
X136022546Y-74870748D01*
X136046992Y-74840960D01*
X136116393Y-74756393D01*
X136200960Y-74686992D01*
X136230748Y-74662546D01*
X136361214Y-74592810D01*
X136502778Y-74549867D01*
X136576335Y-74542622D01*
X136613112Y-74539000D01*
X136686888Y-74539000D01*
X136723665Y-74542622D01*
X136723665Y-74542622D01*
G37*
M02*
