G04 #@! TF.GenerationSoftware,KiCad,Pcbnew,(5.1.2)-2*
G04 #@! TF.CreationDate,2019-08-09T21:51:19-03:00*
G04 #@! TF.ProjectId,ma_a,6d61e761-2e6b-4696-9361-645f70636258,rev?*
G04 #@! TF.SameCoordinates,Original*
G04 #@! TF.FileFunction,Copper,L1,Top*
G04 #@! TF.FilePolarity,Positive*
%FSLAX46Y46*%
G04 Gerber Fmt 4.6, Leading zero omitted, Abs format (unit mm)*
G04 Created by KiCad (PCBNEW (5.1.2)-2) date 2019-08-09 21:51:20*
%MOMM*%
%LPD*%
G04 APERTURE LIST*
%ADD10O,1.400000X1.400000*%
%ADD11C,1.400000*%
%ADD12R,1.050000X1.500000*%
%ADD13O,1.050000X1.500000*%
%ADD14C,1.600000*%
%ADD15C,1.000000*%
G04 APERTURE END LIST*
D10*
X136650000Y-81590000D03*
D11*
X129030000Y-81590000D03*
D10*
X136650000Y-78440000D03*
D11*
X129030000Y-78440000D03*
D10*
X136650000Y-75290000D03*
D11*
X129030000Y-75290000D03*
D12*
X140110000Y-76970000D03*
D13*
X142650000Y-76970000D03*
X141380000Y-76970000D03*
D14*
X142200000Y-81280000D03*
X139700000Y-81280000D03*
D15*
X141200001Y-82780001D02*
X140499999Y-82079999D01*
X142920001Y-82780001D02*
X141200001Y-82780001D01*
X143875010Y-81824992D02*
X142920001Y-82780001D01*
X140499999Y-82079999D02*
X139700000Y-81280000D01*
X143875010Y-76237585D02*
X143875010Y-81824992D01*
X142927425Y-75290000D02*
X143875010Y-76237585D01*
X136650000Y-75290000D02*
X142927425Y-75290000D01*
X142650000Y-78720000D02*
X142650000Y-76970000D01*
X141749989Y-79620011D02*
X142650000Y-78720000D01*
X139139987Y-79620011D02*
X141749989Y-79620011D01*
X138199999Y-80559999D02*
X139139987Y-79620011D01*
X138199999Y-82780001D02*
X138199999Y-80559999D01*
X137989999Y-82990001D02*
X138199999Y-82780001D01*
X130430001Y-82990001D02*
X137989999Y-82990001D01*
X129030000Y-81590000D02*
X130430001Y-82990001D01*
X129030000Y-75290000D02*
X129030000Y-78440000D01*
X141380000Y-78235002D02*
X141380000Y-76970000D01*
X141195001Y-78420001D02*
X141380000Y-78235002D01*
X139024999Y-78420001D02*
X141195001Y-78420001D01*
X137644997Y-77039999D02*
X139024999Y-78420001D01*
X135977999Y-77039999D02*
X137644997Y-77039999D01*
X134577998Y-78440000D02*
X135977999Y-77039999D01*
X129030000Y-78440000D02*
X134577998Y-78440000D01*
X136650000Y-81590000D02*
X136650000Y-78440000D01*
M02*
